# xmcd CD database file
#
# Track frame offsets:
#	150
#	21126
#	41200
#	61799
#	88774
#	109524
#	129898
#	150948
#	171924
#	194549
#
# Disc length: 2870 seconds
#
# Revision: 0
# Processed by: cddbd v1.5.2PL0 Copyright (c) Steve Scherf et al.
# Submitted via: CDex 1.50Beta7
#
DISCID=770b340a
DTITLE=El Gran Combo - "Arroz Con Habichuela" (Norte/Sony&BMG)
DYEAR=2006
DGENRE=Salsa
TTITLE0=Si La Ves Por Ahí
TTITLE1=Te Veo Nena
TTITLE2=No Hay Manera
TTITLE3=Arroz Con Habichuela
TTITLE4=Esa Mujer
TTITLE5=Como Tiembla El Alma
TTITLE6=Yo No Mendigo Amor
TTITLE7=Piénsalo
TTITLE8=No Te Detengas a Pensar
TTITLE9=Un No Sé Qué
EXTD=YEAR: 2006
EXTT0=
EXTT1=
EXTT2=
EXTT3=
EXTT4=
EXTT5=
EXTT6=
EXTT7=
EXTT8=
EXTT9=
PLAYORDER=
